<svg width="518" height="348" viewBox="0 0 518 348" fill="none" xmlns="http://www.w3.org/2000/svg">
<path d="M516.969 104.73C523.349 128.56 489.619 160.31 432.039 190.23C423.819 278.65 349.44 347.86 258.87 347.86C200.42 347.86 148.7 319.03 117.17 274.81C52.2995 277.71 7.1595 267.08 0.769499 243.23C-5.6105 219.4 28.1195 187.63 85.6995 157.72C93.8695 69.27 168.27 0 258.87 0C317.37 0 369.109 28.88 400.639 73.15C465.479 70.25 510.579 80.9 516.969 104.73ZM432.699 168.24C465.569 148.62 483.67 129.41 479.72 114.71C475.78 100.01 450.53 92.43 412.25 91.86C424.51 114.74 431.809 140.68 432.699 168.24ZM382.829 108.36C382.919 107.09 381.79 106.07 380.53 106.27L358.72 109.83C357.77 109.98 357.06 110.8 357.06 111.77L356.53 179.18C356.52 180.45 357.69 181.4 358.94 181.13L376.799 177.22C377.659 177.03 378.289 176.3 378.349 175.42L382.829 108.36ZM377.24 206.04C377.95 205.71 378.4 204.99 378.38 204.21L378 183.78C377.98 182.5 376.759 181.58 375.509 181.9L357.94 186.54C357.15 186.75 356.579 187.41 356.479 188.22L353.44 213.81C353.26 215.35 354.84 216.49 356.24 215.84L377.24 206.04ZM364.039 67.25C364.769 64.9 363.149 62.48 360.699 62.26L332.28 59.69C330.35 59.52 328.59 60.8 328.16 62.69L324.729 78.01C323.959 81.45 319.369 82.15 317.609 79.09L308.46 63.17C307.58 61.64 305.779 60.9 304.079 61.37L283.389 67.11C280.959 67.78 279.819 70.56 281.069 72.75L308.789 121.2C309.379 122.23 309.46 123.47 309.02 124.57L289.079 173.59C287.859 176.6 290.67 179.69 293.78 178.74L331.16 167.34C332.38 166.97 333.34 166.01 333.72 164.79L364.039 67.25ZM346.81 169.78C346.87 168.33 345.4 167.32 344.06 167.88L332.669 172.68C331.959 172.98 331.49 173.66 331.46 174.43L330.949 187.85C330.879 189.8 328.319 190.48 327.289 188.82L320.62 178.13C320.13 177.35 319.169 177 318.299 177.31L304.81 181.94C304.04 182.2 303.52 182.91 303.47 183.71L300.18 248.74C300.09 250.39 301.96 251.41 303.31 250.45L319.139 239.16C319.639 238.81 319.94 238.24 319.97 237.64L320.169 233.11C320.229 231.89 321.19 231.22 322.16 231.22C322.97 231.22 323.769 231.68 324.049 232.67C324.419 233.97 325.949 234.53 327.069 233.77L344.039 222.17C344.559 221.82 344.88 221.24 344.9 220.61L346.81 169.78ZM296.139 255.12C296.859 254.8 297.329 254.08 297.319 253.29L296.74 186.07C296.73 184.77 295.479 183.83 294.229 184.18L257.72 194.36C256.92 194.58 256.34 195.28 256.28 196.11L250.189 272.25C250.069 273.75 251.589 274.82 252.969 274.22L296.139 255.12ZM288.109 147.59C288.649 144.52 285.51 142.11 282.68 143.42L248.799 159.1C246.169 160.32 243.19 158.31 243.32 155.42L243.52 150.95C243.58 149.59 244.36 148.36 245.56 147.71L267.74 135.89C269.18 135.12 269.98 133.53 269.75 131.92L266.84 112.13C266.48 109.68 263.94 108.2 261.63 109.09L249.9 113.6C247.24 114.62 244.43 112.52 244.66 109.68L244.68 109.42C244.8 107.95 245.74 106.68 247.12 106.14L278.34 93.86C280.42 93.04 281.37 90.63 280.41 88.61L273.299 73.65C272.559 72.09 270.86 71.21 269.16 71.5L213.74 81.01C211.92 81.32 210.569 82.88 210.529 84.73L208.13 195.5C208.07 198.05 210.46 199.95 212.93 199.33L279.669 182.64C281.149 182.27 282.269 181.06 282.539 179.56L288.109 147.59ZM251.469 199.7C251.549 198.29 250.18 197.25 248.85 197.71L233.2 203.1C232.48 203.35 231.97 203.98 231.88 204.74L229.469 225.14C229.249 227 226.81 227.54 225.82 225.96L214.68 208.08C214.22 207.34 213.31 206.98 212.46 207.22L190.939 213.25C189.969 213.52 189.36 214.48 189.52 215.48L200.999 285.51C201.209 286.77 202.53 287.5 203.71 287.02L217.79 281.22C218.58 280.89 219.08 280.09 219.01 279.24L218.56 273.44C218.39 271.17 221.54 270.45 222.38 272.56L225.109 279.5C225.459 280.4 226.41 280.91 227.35 280.71L245.419 276.97C246.299 276.79 246.939 276.04 246.999 275.15L251.469 199.7ZM201.669 202.34C203.409 201.89 204.61 200.29 204.56 198.5L201.68 93.89C201.59 90.76 198.01 89.03 195.51 90.9L177.29 104.53C176.46 105.15 175.909 106.08 175.779 107.11L171.07 142.27C170.92 143.41 170.259 144.42 169.279 145.03L165.189 147.58C162.549 149.22 159.15 147.23 159.29 144.12L160.329 121.47C160.479 118.22 156.779 116.25 154.169 118.19L135.95 131.7C135.13 132.31 134.589 133.21 134.439 134.21L122.77 209.83C122.39 212.27 124.38 214.43 126.84 214.27L154.669 212.44C156.749 212.3 158.339 210.54 158.279 208.46L157.49 183.34C157.45 181.96 158.15 180.66 159.32 179.93L163.45 177.38C165.95 175.84 169.2 177.54 169.34 180.48L170.549 205.63C170.669 208.08 173.01 209.8 175.38 209.18L201.669 202.34ZM196.52 289.32C197.67 289.08 198.37 287.9 198.01 286.78L175.91 217.4C175.59 216.41 174.559 215.83 173.549 216.08L143.35 223.48C142.33 223.73 141.69 224.73 141.87 225.76L153.189 287.44C153.349 288.29 154.04 288.94 154.9 289.05L171.15 291.04C172.6 291.22 173.74 289.81 173.26 288.43L169.21 276.68C168.77 275.41 169.7 274.09 171.04 274.06L172.63 274.03C173.44 274.01 174.17 274.49 174.49 275.23L181.169 290.85C181.539 291.72 182.469 292.2 183.389 292.01L196.52 289.32ZM105.53 256.1C93.2495 233.22 85.9395 207.28 85.0295 179.72C52.1495 199.34 34.0695 218.55 38.0095 233.26C41.9395 247.97 67.2295 255.55 105.53 256.1Z" fill="#2A2C2E"/>
<path d="M380.53 106.28C381.79 106.08 382.91 107.09 382.83 108.37L378.34 175.43C378.28 176.31 377.65 177.04 376.79 177.23L358.93 181.14C357.69 181.41 356.52 180.46 356.52 179.19L357.05 111.78C357.06 110.81 357.76 110 358.71 109.84L380.53 106.28Z" fill="#D12B38"/>
<path d="M378.38 204.21C378.39 204.99 377.95 205.71 377.24 206.04L356.26 215.85C354.86 216.51 353.27 215.36 353.46 213.82L356.5 188.23C356.6 187.42 357.17 186.76 357.96 186.55L375.53 181.91C376.77 181.58 377.99 182.5 378.02 183.79L378.38 204.21Z" fill="#D12B38"/>
<path d="M360.69 62.2598C363.14 62.4798 364.76 64.8998 364.03 67.2498L333.72 164.8C333.34 166.02 332.38 166.98 331.16 167.35L293.78 178.75C290.67 179.7 287.85 176.61 289.08 173.6L309.02 124.58C309.47 123.48 309.38 122.24 308.79 121.21L281.07 72.7598C279.82 70.5798 280.96 67.7898 283.39 67.1198L304.08 61.3798C305.78 60.9098 307.58 61.6498 308.46 63.1798L317.61 79.0998C319.36 82.1598 323.96 81.4598 324.73 78.0198L328.16 62.6998C328.58 60.8098 330.34 59.5198 332.28 59.6998L360.69 62.2598Z" fill="#F2C43E"/>
<path d="M344.059 167.88C345.399 167.32 346.859 168.33 346.809 169.78L344.899 220.61C344.879 221.24 344.559 221.82 344.039 222.17L327.069 233.77C325.949 234.53 324.409 233.98 324.049 232.67C323.769 231.69 322.969 231.22 322.159 231.22C321.189 231.22 320.219 231.89 320.169 233.11L319.969 237.64C319.949 238.25 319.639 238.81 319.139 239.16L303.309 250.45C301.959 251.41 300.099 250.39 300.179 248.74L303.469 183.71C303.509 182.9 304.039 182.2 304.809 181.94L318.299 177.31C319.169 177.01 320.129 177.35 320.619 178.13L327.289 188.82C328.319 190.48 330.869 189.8 330.949 187.85L331.459 174.43C331.489 173.66 331.959 172.98 332.669 172.68L344.059 167.88Z" fill="#D12B38"/>
<path d="M297.319 253.3C297.329 254.09 296.859 254.81 296.139 255.13L252.969 274.23C251.599 274.84 250.079 273.76 250.189 272.26L256.279 196.12C256.349 195.29 256.919 194.59 257.719 194.37L294.229 184.19C295.489 183.84 296.729 184.78 296.739 186.08L297.319 253.3ZM276.919 242.71L278.109 209.27L274.899 210.33L271.519 244.57L276.919 242.71Z" fill="#D12B38"/>
<path d="M282.68 143.42C285.51 142.11 288.64 144.52 288.11 147.59L282.53 179.56C282.27 181.06 281.14 182.27 279.66 182.64L212.92 199.33C210.45 199.95 208.07 198.05 208.12 195.5L210.52 84.7299C210.56 82.8799 211.9 81.3199 213.73 81.0099L269.16 71.5099C270.86 71.2199 272.56 72.0899 273.3 73.6599L280.41 88.6199C281.37 90.6399 280.42 93.0499 278.34 93.8699L247.12 106.15C245.75 106.69 244.8 107.96 244.68 109.43L244.66 109.69C244.43 112.53 247.24 114.63 249.9 113.61L261.63 109.1C263.94 108.21 266.48 109.69 266.84 112.14L269.75 131.93C269.99 133.54 269.19 135.13 267.74 135.9L245.56 147.72C244.36 148.36 243.58 149.59 243.52 150.96L243.32 155.43C243.19 158.32 246.17 160.32 248.8 159.11L282.68 143.42Z" fill="#F2C43E"/>
<path d="M278.11 209.27L276.92 242.71L271.52 244.58L274.89 210.34L278.11 209.27Z" fill="#2A2C2E"/>
<path d="M248.85 197.71C250.18 197.25 251.55 198.29 251.47 199.7L247 275.15C246.95 276.04 246.3 276.79 245.42 276.97L227.35 280.71C226.41 280.91 225.46 280.39 225.11 279.5L222.38 272.56C221.55 270.45 218.39 271.17 218.56 273.44L219.01 279.24C219.08 280.1 218.59 280.9 217.79 281.22L203.71 287.02C202.53 287.51 201.21 286.77 201 285.51L189.52 215.48C189.36 214.48 189.97 213.52 190.94 213.25L212.46 207.22C213.31 206.98 214.21 207.33 214.68 208.08L225.82 225.96C226.81 227.55 229.25 227 229.47 225.14L231.88 204.74C231.97 203.98 232.48 203.35 233.2 203.1L248.85 197.71Z" fill="#D12B38"/>
<path d="M204.559 198.5C204.609 200.3 203.409 201.89 201.669 202.34L175.349 209.19C172.979 209.81 170.639 208.09 170.519 205.64L169.309 180.49C169.169 177.55 165.919 175.84 163.419 177.39L159.289 179.94C158.109 180.67 157.419 181.96 157.459 183.35L158.249 208.47C158.319 210.55 156.719 212.31 154.639 212.45L126.809 214.28C124.349 214.44 122.359 212.28 122.739 209.84L134.409 134.22C134.559 133.22 135.109 132.31 135.919 131.71L154.139 118.2C156.759 116.26 160.449 118.23 160.299 121.48L159.259 144.13C159.119 147.24 162.519 149.23 165.159 147.59L169.249 145.04C170.229 144.43 170.889 143.42 171.039 142.28L175.749 107.12C175.889 106.09 176.429 105.16 177.259 104.54L195.479 90.9102C197.989 89.0302 201.569 90.7702 201.649 93.9002L204.559 198.5Z" fill="#F2C43E"/>
<path d="M198.01 286.77C198.37 287.89 197.67 289.07 196.52 289.31L183.4 292.01C182.48 292.2 181.55 291.71 181.18 290.85L174.5 275.23C174.18 274.49 173.45 274.01 172.64 274.03L171.05 274.06C169.71 274.09 168.79 275.42 169.22 276.68L173.27 288.43C173.75 289.81 172.61 291.22 171.16 291.04L154.91 289.05C154.05 288.95 153.36 288.29 153.2 287.44L141.88 225.76C141.69 224.73 142.34 223.73 143.36 223.48L173.56 216.08C174.57 215.83 175.6 216.41 175.92 217.4L198.01 286.77ZM170.11 260.56L163.45 238.35L160.55 238.78L164.66 261.53L170.11 260.56Z" fill="#D12B38"/>
<path d="M163.45 238.35L170.11 260.56L164.65 261.54L160.55 238.79L163.45 238.35Z" fill="#2A2C2E"/>
</svg>
