<svg width="300" height="300" viewBox="0 0 300 300" fill="none" xmlns="http://www.w3.org/2000/svg">
    <rect width="300" height="300" fill="#d12b38"/>
    <g transform="translate(42.5, 42.5)">

    <path d="M123.301 22.969c3.951-6.089 9.471-10.829 15.512-14.124 7.145-3.899 13.646-6.126 21.942-5.297 1.681.168 3.229 1.245 4.791 1.766 9.547 3.182 18.367 9.506 23.456 18.412 1.447 2.53 1.82 5.762 2.522 8.575.86 3.438 1.506 8.099.506 11.602-1.568 5.484-4.759 11.82-8.829 15.89-.463.463-11.714-.044-12.861-.253-4.63-.841-8.727-2.975-12.864-5.044-8.496-4.248-17.569-7.717-25.726-12.61-2.589-1.554-4.68-4.335-7.568-5.297-5.683-1.895-11.646 2.245-17.402 1.765-7.011-.584-14.469-2.267-9.331-10.34.745-1.17 1.067-1.417 2.269-2.018 4.645-2.322 11.073-2.062 16.144-2.522 2.54-.232 6.03 1.668 7.439-.505z" stroke="#1E1E1E" stroke-width="1.95468" stroke-miterlimit="10" stroke-linecap="round" stroke-linejoin="round"/>

    <path d="M172.074 58.024c0-2.042 1.054-3.848 2.269-5.548 2.393-3.35 11.614-12.903 16.394-12.107 1.215.203 1.572 1.884 2.016 2.775" stroke="#1E1E1E" stroke-width="1.95468" stroke-miterlimit="10" stroke-linecap="round" stroke-linejoin="round"/>

    <path d="M64.655 132.523C38.513 136.742 6.166 120.682 2.13 86.579c-4.036-34.103 21.41-56.167 45.441-59.065 24.032-2.899 54.592 10.822 60.006 44.475 1.688 19.394-6.837 40.236-9.844 40.988" stroke="#2a2c2e" fill="#2a2c2e" stroke-width="1.95468"/>

    <!--face-->
    <path d="M175.867 53.248c-.521-.26 5.278.924 6.557 1.01 1.24.082 5.033-1.035 5.549 0M163.911 3.812c-2.554-1.277 6.191-1.51 7.062-1.26 1.842.525 2.019 4.49 2.019 6.053M119.242 37.859c.839-1.68-.637 1.174-.756 1.765-.322 1.602-.688 3.651-.505 5.297.169 1.538 2.043 2.45 2.269 4.035.296 2.06-.758 2.525-1.261 4.288-.704 2.47-.691 5.278-1.008 7.819-.798 6.383 2.823 14.221 5.549 19.672.282.563.255 1.518.755 2.018 2.433 2.432 6.56-1.227 7.821-3.027.882-1.262 1.349-2.448 2.016-3.783" stroke="#1E1E1E" stroke-width="1.95468" stroke-miterlimit="10" stroke-linecap="round" stroke-linejoin="round"/>

    <!--hair-->
    <path d="M134.094 42.895c0 4.083.729 8.044 1.008 12.107.329 4.738-.564 9.206-1.008 13.872-.86 9.026-1.758 18.388-4.79 26.987-2.853 8.075-7.087 15.801-10.343 23.708-1.024 2.486-2.328 5.346-2.521 8.071-.627 8.758.924 21.068 11.603 23.203M160.337 69.389c-1.304.651-.922 5.529-1.008 6.305-.366 3.295-.505 6.254-.505 9.584 0 7.229 6.374 13.548 4.793 20.934-.857 3.993-4.64 6.834-6.81 10.088M134.241 144.04c0-6.825 8.248-14.976 13.117-18.916 2.678-2.169 4.807-4.994 7.565-7.062 6.079-4.558 19.585-12.611 27.744-12.611" stroke="#1E1E1E" stroke-width="1.95468" stroke-miterlimit="10" stroke-linecap="round" stroke-linejoin="round"/>

    <!--back of body-->
    <path d="M165.215 98.651c4.906-2.452 11.186-6.557 16.899-6.557.661 0-.503 4.525-.503 4.54-.306 2.44-.411 4.889-.758 7.314-.11.767-.505 3.045-.505 2.27M179.64 107.971c-1.433-.717 3.371 2.212 3.782 2.522 1.858 1.394 3.39 3.393 4.288 5.549 2.898 6.952 4.312 14.781 5.549 22.195.866 5.192 1.527 10.43 2.269 15.637.651 4.551 2.07 8.999 2.272 13.619.54 12.441 0 24.888 0 37.328M185.133 60.317c-2.019.673-1.683 5.638-1.766 7.315-.124 2.46.828 4.43 1.261 6.81.948 5.218 1.225 10.45 2.521 15.637 2.476 9.9 5.02 21.487 9.082 30.77 1.699 3.882 4.325 7.022 6.051 10.845 6.332 14.019 7.264 27.517.758 41.615M146.386 124.616c-2.158-2.159 1.788-11.245 2.272-14.629M131.5 121.852c-3.185 1.911-2.774 8.417-2.774 11.854M96.084 164.216c-.17-.167-.74-.471-.505-.504.755-.107 1.516.353 2.271.253 2.199-.294 4.06-1.8 6.052-2.775 6.003-2.935 7.401-4.183 13.619-6.558 6.826-2.606 13.588-3.433 20.682-4.792 6.511-1.247 12.458-4.287 19.169-4.287" stroke="#1E1E1E" stroke-width="1.95468" stroke-miterlimit="10" stroke-linecap="round" stroke-linejoin="round"/>

    <!-- arm -->
    <path d="M106.944 158.181c-1.412-4.236-2.009-9.216-2.775-13.62-1.538-8.84-4.406-17.448-6.054-26.23-1.124-5.998-2.121-11.988-3.53-17.908-1.167-4.903-1.1-10.146-1.766-15.132-.119-.9-.022-3.554-.756-4.288-1.306-1.306-7.331.095-8.829.252-2.1.221-12.29.1-13.366 2.522-1.269 2.853-1.586 6.568-2.016 9.585-.17 1.176-.369 2.35-.506 3.53-2.726 23.623-2.36 47.175-1.514 70.873.24 6.718-.104 13.478.506 20.176.129 1.433-.14 3.002.503 4.289.602 1.201 3.027 1.261 4.035 1.512 5.094 1.274 10.065 1.944 15.386 1.767 7.992-.268 15.549-2.216 23.456-3.027 6.226-.639 12.423.43 18.663.251 4.022-.114 7.842-1.26 11.856-1.26" stroke="#1E1E1E" fill="#d12b38" stroke-width="1.95468" stroke-miterlimit="10" stroke-linecap="round" stroke-linejoin="round"/>

    <!-- lower arm shadow -->
    <path d="M54.617 120.947c1.409 5.919 1.397 5.504 2.52 11.501-12.079.367-18.743-1.005-30.314-8.06.136-1.181.891-9.326 1.061-10.503.43-3.017.747-6.732 2.017-9.584 1.075-2.422 11.266-2.301 13.365-2.522 1.498-.158 7.523-1.558 8.83-.253.733.735.637 3.388.756 4.288.666 4.986.598 10.23 1.765 15.133z" fill="#f2c43e" stroke="#1E1E1E" stroke-width="1.95468" stroke-miterlimit="10" stroke-linecap="round" stroke-linejoin="round"/>

    <!-- hand -->
    <path d="M115.193 191.962c-.737-2.207-1.541 1.722-1.766 2.269-.974 2.368-2.03 4.703-3.027 7.063-1.53 3.626-3.546 7.191-4.036 11.098M90.38 80.406c-1.274-2.55-.019-6.982-.253-9.794-.645-7.76-2-15.03-3.513-22.601-.232-1.148-3.275-5.268-4.773-4.27-1.317.878-.903 5.329-.752 6.53.285 2.284.752 4.675.752 7.031 0 3.126.753 6.096.753 9.292v-.502c0-.754.108-1.515 0-2.26a132.89 132.89 0 00-.752-4.772c-.772-4.246-2.708-7.671-4.522-11.3-.404-.81-2.401-3.003-3.514-2.26-1.694 1.128-.255 10.286.25 12.304.812 3.245 1.718 6.535 2.26 9.794.068.413.348 1.024 0 1.256-1.362.909-4.225-1.223-4.771 1.507-.478 2.396-.478 5.392 0 7.784.263 1.316 1.255 2.669 1.255 4.019" stroke="#1E1E1E" fill="#d12b38" stroke-width="1.95468" stroke-miterlimit="10" stroke-linecap="round" stroke-linejoin="round"/>

    <path d="M50.413 100.929c-1.274-2.55-.018-6.982-.253-9.794-.645-7.76-2-15.03-3.512-22.6-.232-1.148-3.275-5.269-4.773-4.27-1.317.877-.904 5.328-.753 6.53.286 2.284.753 4.675.753 7.03 0 3.126.752 6.096.752 9.292v-.502c0-.753.108-1.514 0-2.26a131.713 131.713 0 00-.752-4.771c-.771-4.247-2.708-7.672-4.523-11.3-.403-.81-2.4-3.004-3.512-2.26-1.695 1.128-.256 10.285.25 12.304.811 3.245 1.717 6.535 2.261 9.794.066.413.346 1.023 0 1.255-1.364.909-4.227-1.223-4.773 1.507-.478 2.397-.478 5.392 0 7.785.264 1.316 1.256 2.668 1.256 4.018" fill="#f2c43e"/>

    <path d="M50.413 100.929c-1.274-2.55-.018-6.982-.253-9.794-.645-7.76-2-15.03-3.512-22.6-.232-1.148-3.275-5.269-4.773-4.27-1.317.877-.904 5.328-.753 6.53.286 2.284.753 4.675.753 7.03 0 3.126.752 6.096.752 9.292v-.502c0-.753.108-1.514 0-2.26a131.713 131.713 0 00-.752-4.771c-.771-4.247-2.708-7.672-4.523-11.3-.403-.81-2.4-3.004-3.512-2.26-1.695 1.128-.256 10.285.25 12.304.811 3.245 1.717 6.535 2.261 9.794.066.413.346 1.023 0 1.255-1.364.909-4.227-1.223-4.773 1.507-.478 2.397-.478 5.392 0 7.785.264 1.316 1.256 2.668 1.256 4.018" stroke="#1E1E1E" stroke-width="1.95468" stroke-miterlimit="10" stroke-linecap="round" stroke-linejoin="round"/>


    </g>

</svg>